<svg xmlns="http://www.w3.org/2000/svg" width="828" height="260" viewBox="0 0 828 260" version="1.1"><path d="M -0 130.001 L -0 260.002 414.250 259.751 L 828.500 259.500 828.754 129.750 L 829.007 0 639.406 0 L 449.804 0 451.652 2.850 C 459.996 15.719, 461.635 17.984, 462.612 17.991 C 463.224 17.996, 466.854 16.710, 470.678 15.133 L 477.631 12.266 496.696 37.383 C 507.182 51.197, 516.153 62.441, 516.631 62.369 C 517.109 62.296, 519.571 61.941, 522.102 61.580 L 526.703 60.922 538.798 74.681 C 545.450 82.249, 550.769 88.564, 550.618 88.715 C 550.467 88.867, 539.353 88.322, 525.921 87.505 C 512.490 86.689, 501 86.016, 500.389 86.010 C 499.778 86.005, 499.022 83.862, 498.709 81.250 C 498.396 78.638, 496.964 72.788, 495.526 68.250 L 492.913 60 484.995 60 L 477.077 60 469.533 44.340 C 464.226 33.322, 460.855 27.601, 458.162 25.039 C 456.057 23.037, 453.800 19.866, 453.147 17.992 C 451.611 13.586, 448.208 10, 445.562 10 C 441.902 10, 395.339 35.024, 393.519 37.969 C 393.257 38.393, 400.869 49.936, 410.436 63.620 C 420.002 77.304, 427.702 88.628, 427.546 88.785 C 427.391 88.941, 422.350 87.057, 416.345 84.597 C 410.339 82.137, 402.116 79.208, 398.070 78.087 C 394.025 76.966, 390.463 75.797, 390.156 75.489 C 389.848 75.182, 389.290 71.967, 388.915 68.346 C 388.540 64.725, 387.660 61.408, 386.959 60.975 C 386.258 60.541, 382.141 59.611, 377.811 58.908 C 373.480 58.205, 369.549 57.150, 369.074 56.565 C 368.598 55.979, 367.019 49.875, 365.563 43 C 362.852 30.198, 360.352 21.993, 359.167 22.009 C 358.800 22.014, 354.551 25.818, 349.725 30.462 C 337.843 41.897, 326.612 51.308, 307 66.265 C 297.925 73.186, 287.804 81.099, 284.508 83.850 C 281.213 86.600, 278.348 88.681, 278.142 88.475 C 277.936 88.269, 286.421 75.941, 296.999 61.079 L 316.231 34.057 320.866 40.415 L 325.500 46.772 339.462 26.360 C 348.453 13.215, 353.893 6.129, 354.743 6.455 C 355.470 6.734, 363.470 11.704, 372.522 17.499 L 388.981 28.037 405.240 16.212 C 414.183 9.708, 422.059 4.050, 422.742 3.639 C 423.468 3.202, 425.854 4.179, 428.489 5.992 L 432.995 9.092 439.997 4.932 C 443.849 2.644, 447 0.598, 447 0.386 C 447 0.174, 346.425 0, 223.500 0 L 0 0 -0 130.001 M 0.485 130.500 C 0.485 202, 0.604 231.103, 0.750 195.172 C 0.895 159.242, 0.895 100.742, 0.750 65.172 C 0.604 29.603, 0.485 59, 0.485 130.500 M 3 148.734 C 3 149.137, 10.965 173.678, 20.699 203.269 L 38.398 257.070 47.368 256.785 L 56.337 256.500 61.031 242.500 L 65.725 228.500 70.204 242.500 L 74.684 256.500 83.592 256.500 L 92.500 256.500 110.186 204 C 119.914 175.125, 127.902 150.713, 127.936 149.750 C 127.994 148.167, 126.720 148, 114.622 148 L 101.243 148 97.523 158.750 C 95.477 164.662, 91.473 176.361, 88.625 184.748 L 83.447 199.995 78.653 185.498 L 73.859 171 65.500 171 L 57.141 171 52.338 185.526 L 47.534 200.052 45.279 193.276 C 44.039 189.549, 40.041 177.838, 36.395 167.250 L 29.767 148 16.383 148 C 9.023 148, 3 148.330, 3 148.734 M 144 202.500 L 144 257 157 257 L 170 257 170 202.500 L 170 148 157 148 L 144 148 144 202.500 M 198 202.500 L 198 257 227.500 257 L 257 257 257 244 L 257 231 241 231 L 225 231 225 189.500 L 225 148 211.500 148 L 198 148 198 202.500 M 285 202.552 L 285 257.105 307.776 256.802 L 330.552 256.500 337.319 253.166 C 345.182 249.293, 350.550 243.262, 354.158 234.252 C 356.341 228.801, 356.462 227.219, 356.481 204 C 356.494 186.522, 356.109 177.979, 355.137 174.195 C 353.289 167, 346.975 157.834, 341.260 154.049 C 333.247 148.741, 328.903 148, 305.818 148 L 285 148 285 202.552 M 439.205 149.835 C 432.579 152.198, 427.440 156.258, 423.241 162.448 C 417.349 171.135, 416.817 174.846, 417.177 204.755 L 417.500 231.500 420.302 237.500 C 426.126 249.969, 435.230 256.087, 449 256.785 C 459.069 257.296, 464.170 256.109, 469.976 251.902 L 474.260 248.799 471.170 245.708 C 468.259 242.797, 467.973 242.714, 466.240 244.283 C 461.581 248.499, 450.599 250.158, 442.807 247.824 C 437.231 246.153, 430.700 240.009, 427.889 233.788 C 425.567 228.648, 425.500 227.770, 425.500 202.500 C 425.500 178.220, 425.638 176.202, 427.592 172 C 432.376 161.709, 440.717 156.028, 451.071 156.010 C 461.756 155.991, 472.028 163.767, 475.223 174.292 C 476.113 177.224, 476.500 186.079, 476.500 203.500 L 476.500 228.500 473.554 234.883 L 470.608 241.266 473.501 243.754 L 476.394 246.243 478.631 243.439 C 479.861 241.896, 481.830 237.639, 483.007 233.977 C 485.016 227.729, 485.128 225.668, 484.824 200.410 C 484.502 173.678, 484.482 173.462, 481.840 167.825 C 478.253 160.174, 472.096 153.725, 465.727 150.947 C 458.439 147.769, 446.414 147.265, 439.205 149.835 M 630.329 150.093 C 623.999 152.527, 617.525 158.622, 614.662 164.844 C 611.659 171.370, 611.635 184.580, 614.615 191.051 C 619.320 201.266, 628.344 207.469, 640.212 208.647 C 650.969 209.714, 655.003 213.673, 654.996 223.154 C 654.988 234.699, 645.245 241.496, 636.420 236.114 C 633.384 234.263, 630 228.720, 630 225.599 C 630 224.400, 628.999 224, 626 224 C 622.213 224, 622 224.161, 622 227.032 C 622 237.433, 631.259 246, 642.500 246 C 659.411 246, 668.986 227.996, 660.927 211.350 C 658.341 206.007, 651.508 201.309, 645.148 200.502 C 635.562 199.285, 634.245 198.907, 629.821 196.101 C 623.849 192.314, 621 186.549, 621 178.249 C 621 170.714, 621.913 168.208, 626.518 163.112 C 635.724 152.922, 653.739 154.211, 660.946 165.575 C 662.509 168.041, 664.081 171.620, 664.439 173.529 C 665.057 176.819, 665.304 177, 669.181 177 L 673.272 177 672.640 172.394 C 671.824 166.435, 667.508 158.565, 663.034 154.874 C 654.835 148.111, 640.813 146.061, 630.329 150.093 M 781.666 149.734 C 775.103 151.921, 767.830 158.664, 764.962 165.221 C 762.298 171.311, 761.838 180.808, 763.858 188 C 767.009 199.218, 777.897 207.546, 790.962 208.730 C 798.399 209.405, 802.833 212.095, 804.592 217 C 806.418 222.090, 806.259 225.833, 804.021 230.456 C 798.547 241.764, 784.454 240.109, 780.978 227.750 C 779.986 224.225, 779.685 224, 775.961 224 C 772.304 224, 772.001 224.211, 772.010 226.750 C 772.027 231.707, 776.350 239.277, 781.004 242.503 C 784.890 245.196, 786.107 245.500, 793 245.500 C 799.813 245.500, 801.133 245.180, 804.802 242.637 C 810.412 238.749, 814 231.461, 814 223.953 C 814 209.677, 806.918 201.939, 792.155 200.086 C 784.486 199.123, 780.728 197.471, 776.803 193.339 C 768.368 184.459, 769.260 168.877, 778.646 161.140 C 786.946 154.299, 799.147 154.375, 807.573 161.321 C 811.414 164.487, 814.940 170.882, 814.978 174.750 C 814.997 176.705, 815.525 177, 819 177 C 822.722 177, 823 176.804, 823 174.178 C 823 164.529, 814.012 152.874, 804.135 149.716 C 797.505 147.595, 788.062 147.603, 781.666 149.734 M 524.243 201.761 C 514.759 230.229, 507 254.105, 507 254.818 C 507 255.723, 508.263 256.022, 511.172 255.807 L 515.344 255.500 520.005 241.500 L 524.665 227.500 540.333 227.225 C 548.950 227.073, 556 226.791, 556 226.597 C 556 226.403, 555.319 224.614, 554.487 222.622 L 552.973 219 540.487 219 C 533.619 219, 528 218.736, 528 218.413 C 528 218.091, 532.950 202.870, 539 184.589 C 545.050 166.309, 550 151.048, 550 150.676 C 550 150.304, 548.084 150, 545.743 150 L 541.486 150 524.243 201.761 M 542.288 183.064 L 531.076 216.106 535.710 215.803 L 540.343 215.500 547.007 195.500 L 553.672 175.500 567.076 215.750 L 580.481 256 584.741 256 C 587.083 256, 589 255.727, 589 255.394 C 589 253.916, 554.531 150.001, 554.044 150.011 C 553.745 150.017, 548.455 164.891, 542.288 183.064 M 708 203 L 708 256 712 256 L 716 256 716 203 L 716 150 712 150 L 708 150 708 203 M 719 203 L 719 256 723.500 256 L 728 256 728 203 L 728 150 723.500 150 L 719 150 719 203 M 9 152.694 C 9 154.860, 41.703 251.275, 42.158 250.449 C 42.445 249.927, 46.438 237.909, 51.031 223.741 C 55.625 209.574, 59.693 198.324, 60.071 198.741 C 60.450 199.159, 64.745 211.537, 69.615 226.250 L 78.472 253 81.843 253 C 84.118 253, 85.065 252.594, 84.754 251.750 C 84.501 251.063, 78.997 234.525, 72.522 215 C 66.048 195.475, 60.445 179.161, 60.073 178.748 C 59.700 178.334, 55.594 189.691, 50.948 203.986 C 46.301 218.281, 42.200 229.982, 41.833 229.988 C 41.467 229.995, 35.357 212.563, 28.256 191.250 L 15.346 152.500 12.173 152.187 C 10.428 152.014, 9 152.243, 9 152.694 M 20.425 153.750 C 20.732 154.713, 25.635 169.440, 31.320 186.478 L 41.656 217.457 43.248 212.785 L 44.840 208.112 35.736 180.056 L 26.631 152 23.248 152 C 20.480 152, 19.967 152.318, 20.425 153.750 M 95.349 180.118 L 86.198 208.225 87.771 212.841 L 89.344 217.457 99.680 186.478 C 105.365 169.440, 110.268 154.713, 110.575 153.750 C 111.032 152.322, 110.524 152.001, 107.817 152.006 L 104.500 152.011 95.349 180.118 M 115.694 152.750 C 115.461 153.162, 109.547 170.713, 102.552 191.750 C 95.557 212.787, 89.524 230, 89.146 230 C 88.768 230, 84.427 217.850, 79.500 203 L 70.542 176 67.342 176 L 64.142 176 69.094 190.750 C 71.818 198.863, 77.237 215.400, 81.136 227.500 C 85.036 239.600, 88.483 249.927, 88.796 250.449 C 89.275 251.250, 122 154.970, 122 152.758 C 122 151.774, 116.250 151.767, 115.694 152.750 M 148 202.500 L 148 253 151.500 253 L 155 253 155 202.500 L 155 152 151.500 152 L 148 152 148 202.500 M 159 202.500 L 159 253 162.500 253 L 166 253 166 202.500 L 166 152 162.500 152 L 159 152 159 202.500 M 203 197 L 203 242 228 242 L 253 242 253 239 L 253 236 231 236 L 209 236 209 194 L 209 152 206 152 L 203 152 203 197 M 214 191.500 L 214 231 217 231 L 220 231 220 191.500 L 220 152 217 152 L 214 152 214 191.500 M 290 196.894 L 290 242 307.032 242 C 325.905 242, 329.019 241.300, 334.728 235.775 C 340.498 230.190, 341.502 225.174, 341.486 202 C 341.473 182.618, 341.343 181.213, 339.110 176.243 C 336.333 170.063, 331.553 165.525, 326.277 164.060 C 324.200 163.483, 318.247 163.009, 313.048 163.006 L 303.596 163 307.048 166.468 C 310.376 169.812, 310.773 169.938, 318.115 169.968 C 327.007 170.005, 330.065 171.730, 333.104 178.421 C 334.707 181.951, 334.959 185.197, 334.978 202.538 C 334.999 221.370, 334.865 222.841, 332.750 226.980 C 328.795 234.719, 326.954 235.450, 310.429 235.844 L 296 236.188 296 197.509 L 296 158.831 312.826 159.166 C 329.324 159.493, 329.735 159.555, 333.880 162.300 C 339.074 165.739, 343.542 172.574, 345.046 179.378 C 345.759 182.604, 346.052 192.273, 345.839 205.500 C 345.527 224.847, 345.320 226.889, 343.219 231.447 L 340.939 236.393 343.305 238.759 L 345.671 241.125 348.585 234.813 L 351.500 228.500 351.500 202.479 L 351.500 176.458 348.200 169.755 C 346.088 165.464, 343.361 161.791, 340.623 159.547 C 332.874 153.198, 330.564 152.657, 309.250 152.200 L 290 151.788 290 196.894 M 444.037 160.174 C 442.132 160.721, 439.276 162.091, 437.692 163.220 L 434.810 165.272 437.875 168.337 L 440.940 171.402 445.062 169.085 C 451.979 165.198, 459.182 167.692, 463.308 175.403 C 465.382 179.279, 465.500 180.740, 465.500 202.500 C 465.500 222.973, 465.294 225.914, 463.627 229.270 C 458.314 239.961, 445.101 240.572, 439.266 230.396 C 437.129 226.667, 437.032 225.481, 437.016 202.797 C 437.005 186.806, 437.380 178.259, 438.169 176.528 C 439.206 174.251, 439.016 173.627, 436.482 170.981 C 434.911 169.342, 433.309 168, 432.921 168 C 432.534 168, 431.395 169.912, 430.390 172.250 C 427.739 178.417, 427.035 221.168, 429.448 229.468 C 432.450 239.796, 440.502 245.956, 451 245.956 C 461.498 245.956, 469.550 239.796, 472.552 229.468 C 474.824 221.653, 474.241 178.321, 471.792 173 C 466.690 161.912, 455.692 156.830, 444.037 160.174 M 635.625 160.409 C 630.019 162.494, 629.635 163.276, 632.751 166.262 C 635.297 168.701, 635.839 168.828, 639.597 167.874 C 645.344 166.416, 650.542 168.659, 652.549 173.464 C 653.897 176.690, 654.383 177, 658.093 177 C 662.155 177, 662.158 176.996, 661.472 173.750 C 660.456 168.949, 657.348 164.378, 653.468 161.980 C 649.054 159.252, 640.711 158.518, 635.625 160.409 M 785.524 160.596 C 779.900 162.655, 779.622 163.263, 782.877 166.382 C 785.612 169.002, 785.981 169.086, 789.785 167.946 C 793.266 166.903, 794.320 166.994, 797.652 168.621 C 800.063 169.798, 802.034 171.714, 802.930 173.750 C 804.197 176.627, 804.815 177, 808.311 177 L 812.262 177 811.679 173.407 C 809.923 162.586, 797.163 156.336, 785.524 160.596 M 626.220 167.250 C 625.657 167.938, 624.673 170.454, 624.035 172.842 C 622.708 177.802, 623.886 185.370, 626.637 189.569 C 629.247 193.552, 635.790 196.733, 643 197.524 C 657.733 199.140, 666.140 208.284, 666.377 222.951 C 666.467 228.483, 665.977 230.501, 663.223 235.947 L 659.962 242.395 662.731 244.659 C 664.254 245.904, 665.950 246.796, 666.500 246.639 C 667.050 246.483, 669.075 243.282, 671 239.525 C 674.289 233.107, 674.499 232.116, 674.482 223.098 C 674.466 214.855, 674.093 212.703, 671.834 207.852 C 668.662 201.039, 662.355 194.487, 656.460 191.879 C 654.074 190.824, 648.832 189.547, 644.811 189.043 C 638.493 188.249, 637.127 187.707, 634.750 185.046 C 631.881 181.835, 631.031 176.081, 632.973 173.010 C 633.657 171.928, 633.191 170.765, 631.270 168.760 C 628.295 165.655, 627.679 165.471, 626.220 167.250 M 775.449 169.468 C 773.747 173.541, 773.553 181.688, 775.064 185.685 C 776.232 188.777, 780.447 193.601, 783.359 195.180 C 784.381 195.734, 789.027 196.804, 793.682 197.557 C 803.325 199.118, 807.921 201.527, 812 207.159 C 817.892 215.292, 818.356 226.928, 813.169 236.504 L 810.260 241.875 813.212 244.687 L 816.164 247.500 818.589 244.500 C 823.285 238.691, 825.233 231.460, 824.783 221.500 C 824.304 210.884, 822.177 205.317, 816.066 198.688 C 811.095 193.294, 804.405 190.247, 794.923 189.056 C 787.314 188.101, 784.936 186.673, 782.943 181.863 C 781.999 179.584, 781.971 178, 782.826 175.214 C 783.859 171.850, 783.735 171.333, 781.287 168.778 C 779.824 167.250, 778.237 166, 777.762 166 C 777.287 166, 776.246 167.561, 775.449 169.468 M 301 198.813 L 301 231 304 231 L 307 231 307 201.687 L 307 172.374 304 169.500 L 301 166.626 301 198.813 M 312 202.500 L 312 231 317.600 231 C 322.606 231, 323.551 230.649, 326.510 227.690 C 330.761 223.439, 331.312 219.770, 330.844 198.813 C 330.361 177.158, 328.593 174, 316.953 174 L 312 174 312 202.500 M 551.245 191.750 L 549.323 197.500 554.661 213.466 C 557.598 222.247, 560 229.560, 560 229.716 C 560 229.872, 552.987 230, 544.417 230 C 535.846 230, 528.983 230.338, 529.167 230.750 C 529.350 231.162, 530.625 233.182, 532 235.238 L 534.500 238.975 548.688 238.988 L 562.876 239 565.644 247.500 L 568.412 256 572.706 256 C 575.445 256, 577 255.553, 577 254.766 C 577 252.644, 554.559 186, 553.844 186 C 553.472 186, 552.302 188.588, 551.245 191.750 M 52.821 233 L 46.172 253 49.414 253 L 52.656 253 57.775 237.250 C 62.553 222.552, 62.817 221.216, 61.741 217.250 C 61.106 214.912, 60.335 213, 60.028 213 C 59.721 213, 56.477 222, 52.821 233 M 610.539 228.750 C 612.109 240.010, 618.896 249.617, 628.491 254.156 C 633.476 256.514, 635.815 256.999, 642.212 256.999 C 650.039 257, 658.129 254.776, 662.500 251.421 C 664.459 249.918, 664.430 249.829, 661.072 247.074 L 657.644 244.261 652.927 246.631 C 644.549 250.839, 634.363 249.542, 626.978 243.328 C 623.114 240.076, 619.024 231.823, 619.010 227.250 C 619 224.060, 618.916 224, 614.439 224 L 609.877 224 610.539 228.750 M 761 227.318 C 761 237.869, 768.091 248.891, 778.096 253.890 C 783.400 256.541, 785.428 257, 791.822 257 C 799.817 257, 808.167 254.902, 812.106 251.903 L 814.500 250.081 811.494 247.053 L 808.487 244.025 803.574 246.513 C 796.770 249.957, 789.210 249.905, 782.105 246.365 C 775.456 243.052, 771.415 237.627, 769.811 229.866 L 768.600 224 764.800 224 C 761.163 224, 761 224.143, 761 227.318 M 525.500 234.750 C 525.108 235.713, 523.532 240.100, 522 244.500 C 520.468 248.900, 518.892 253.287, 518.500 254.250 C 517.882 255.764, 518.396 256, 522.311 256 L 526.836 256 529.475 248.074 L 532.115 240.148 529.808 236.586 C 527.195 232.554, 526.514 232.264, 525.500 234.750 M 331.500 243.474 C 325.602 246.449, 325.200 246.506, 307.750 246.847 L 290 247.194 290 250.172 L 290 253.150 309.750 252.825 C 328.921 252.510, 329.648 252.422, 334.563 249.828 C 341.634 246.096, 342.531 244.807, 339.738 242.387 C 337.510 240.457, 337.473 240.462, 331.500 243.474 M 203 250 L 203 253 228 253 L 253 253 253 250 L 253 247 228 247 L 203 247 203 250" stroke="none" fill="transparent" fill-rule="evenodd"/><path d="M 444 3.369 C 442.075 4.607, 438.903 6.586, 436.951 7.767 L 433.402 9.914 428.951 6.962 C 426.503 5.337, 424.216 4.007, 423.868 4.004 C 423.521 4.002, 415.530 9.614, 406.111 16.477 L 388.986 28.953 372.743 18.650 C 363.809 12.984, 355.974 8.041, 355.331 7.665 C 354.589 7.231, 349.168 14.181, 340.453 26.741 C 332.913 37.609, 326.427 46.852, 326.039 47.282 C 325.652 47.713, 323.431 45.350, 321.104 42.032 C 318.776 38.715, 316.564 36.016, 316.186 36.035 C 315.809 36.054, 310.254 43.591, 303.843 52.785 C 297.432 61.978, 289.840 72.822, 286.974 76.883 C 281.396 84.783, 281.698 84.974, 289.500 78.480 C 292.250 76.191, 299.900 70.266, 306.500 65.314 C 323.164 52.810, 338.858 39.836, 349.650 29.643 C 354.683 24.889, 359.059 21, 359.375 21 C 360.890 21, 363.230 28.097, 365.960 40.975 C 367.610 48.758, 369.186 55.493, 369.464 55.941 C 369.741 56.390, 373.607 57.348, 378.055 58.070 C 382.503 58.792, 386.847 59.899, 387.708 60.529 C 388.701 61.254, 389.499 63.985, 389.887 67.982 C 390.288 72.104, 391.020 74.553, 392 75.048 C 392.825 75.464, 398.091 77.242, 403.702 79 C 409.313 80.757, 416.663 83.499, 420.035 85.094 L 426.165 87.993 422.745 83.247 C 415.517 73.216, 392.960 40.059, 392.437 38.695 C 392.049 37.686, 395.670 35.044, 404.693 29.752 C 422.387 19.375, 437.694 11.401, 442.763 9.921 C 446.758 8.754, 447.191 8.827, 449.649 11.088 C 451.091 12.415, 453.109 15.300, 454.132 17.500 C 455.155 19.700, 457.470 22.953, 459.277 24.730 C 462.727 28.122, 464.698 31.672, 472.892 49.250 L 477.903 60 485.908 60 L 493.913 60 496.503 68.198 C 497.927 72.707, 499.358 78.332, 499.682 80.698 C 500.007 83.064, 500.548 85.010, 500.886 85.021 C 501.224 85.033, 511.175 85.698, 523 86.500 C 534.825 87.302, 545.545 87.967, 546.823 87.979 C 548.806 87.997, 547.780 86.447, 539.823 77.399 C 534.695 71.569, 529.573 65.660, 528.439 64.267 C 526.477 61.857, 526.111 61.782, 520.796 62.698 L 515.214 63.660 496.857 39.184 C 486.761 25.723, 478.244 14.317, 477.930 13.837 C 477.617 13.357, 474.067 14.323, 470.043 15.982 C 466.018 17.642, 462.427 19, 462.063 19 C 461.699 19, 458.594 14.950, 455.164 10 C 451.734 5.050, 448.606 1.026, 448.213 1.059 C 447.821 1.091, 445.925 2.131, 444 3.369 M 438.424 150.999 C 430.978 153.949, 425.589 159.059, 421.792 166.771 L 418.500 173.458 418.500 202.479 L 418.500 231.500 421.101 237.046 C 422.532 240.096, 425.191 244.287, 427.011 246.360 C 436.450 257.111, 456.216 259.688, 468.666 251.792 L 473.305 248.851 470.690 246.236 C 468.216 243.761, 467.976 243.712, 466.205 245.314 C 462.848 248.353, 455.271 250.302, 449.021 249.736 C 442.134 249.111, 437.136 246.909, 432.925 242.642 C 425.255 234.872, 423.680 226.861, 424.211 198.331 C 424.654 174.502, 425.881 169.394, 432.744 162.819 C 438.801 157.015, 442.505 155.539, 451 155.543 C 459.808 155.547, 464.608 157.610, 470.193 163.791 C 476.737 171.035, 477.500 175.182, 477.500 203.500 L 477.500 228.500 474.604 234.771 C 473.011 238.220, 471.886 241.150, 472.104 241.281 C 472.322 241.413, 473.506 242.368, 474.736 243.403 L 476.972 245.285 480.236 238.392 L 483.500 231.500 483.500 202.500 L 483.500 173.500 480.899 167.954 C 477.447 160.596, 473.277 156.015, 466.819 152.489 C 459.660 148.580, 446.301 147.880, 438.424 150.999 M 630.572 151.018 C 620.165 155.081, 613.924 164.075, 613.236 176 C 612.210 193.809, 622.725 205.917, 640.903 207.859 C 648.846 208.708, 652.610 210.823, 654.584 215.546 C 658.690 225.373, 654.048 236.834, 645.257 238.577 C 638.608 239.895, 631.883 235.680, 629.860 228.926 C 628.809 225.418, 628.342 225, 625.476 225 C 622.295 225, 622.274 225.033, 622.978 228.879 C 626.172 246.347, 648.959 251.094, 659.260 236.437 C 662.979 231.146, 663.860 223.471, 661.630 215.799 C 658.989 206.713, 651.024 201.021, 640.929 201.006 C 635.462 200.997, 627.016 196.226, 623.506 191.164 C 620.719 187.144, 620.500 186.184, 620.500 178 C 620.500 169.801, 620.714 168.868, 623.509 164.891 C 627.827 158.748, 634.607 155.490, 642.973 155.537 C 655.044 155.605, 662.773 162.043, 665.438 174.250 C 665.936 176.533, 666.567 177, 669.155 177 L 672.272 177 671.653 172.483 C 670.384 163.223, 663.185 154.335, 654.245 150.990 C 647.327 148.402, 637.241 148.414, 630.572 151.018 M 781.606 150.568 C 775.756 152.712, 769.263 158.554, 766.299 164.341 C 764.224 168.391, 763.640 171.004, 763.578 176.500 C 763.470 186.186, 765.429 192.149, 770.615 197.917 C 775.808 203.693, 782.282 206.714, 792.111 207.948 C 797.751 208.656, 799.808 209.400, 802.041 211.539 C 807.307 216.584, 808.040 227.247, 803.559 233.620 C 801.810 236.108, 796.134 239, 793 239 C 787.060 239, 780.013 232.629, 780.004 227.250 C 780.001 225.346, 779.462 225, 776.500 225 C 773.520 225, 773 225.340, 773 227.288 C 773 231.008, 777.213 238.156, 781.343 241.442 C 784.889 244.264, 785.789 244.500, 793 244.500 C 800.211 244.500, 801.111 244.264, 804.657 241.442 C 813.075 234.744, 815.541 222.492, 810.507 212.389 C 806.622 204.594, 801.962 202.027, 788.852 200.463 C 779.100 199.299, 771.376 191.076, 770.316 180.732 C 769.490 172.668, 771.401 167.261, 776.992 161.844 C 783.099 155.928, 789.987 154.007, 798.370 155.883 C 807.222 157.865, 815.904 167.167, 815.978 174.750 C 815.996 176.631, 816.549 177, 819.351 177 L 822.701 177 821.898 171.919 C 820.399 162.436, 813.118 153.804, 803.684 150.326 C 799.279 148.702, 786.310 148.844, 781.606 150.568 M 525.243 201.761 C 515.759 230.229, 508 253.854, 508 254.261 C 508 254.667, 509.462 254.997, 511.250 254.993 L 514.500 254.986 519.347 240.993 L 524.194 227 539.597 227 C 548.069 227, 555 226.842, 555 226.649 C 555 226.456, 554.506 224.881, 553.902 223.149 L 552.804 220 539.902 220 C 532.806 220, 527 219.602, 527 219.116 C 527 218.630, 531.950 203.154, 538 184.725 C 544.050 166.296, 549 150.944, 549 150.609 C 549 150.274, 547.534 150, 545.743 150 L 542.486 150 525.243 201.761 M 709 202.500 L 709 255 712.500 255 L 716 255 716 202.500 L 716 150 712.500 150 L 709 150 709 202.500 M 720 202.500 L 720 255 723.500 255 L 727 255 727 202.500 L 727 150 723.500 150 L 720 150 720 202.500 M 543.229 183.253 C 537.580 199.889, 532.968 213.838, 532.979 214.250 C 532.991 214.662, 534.462 214.998, 536.250 214.996 L 539.500 214.992 546.417 194.463 C 550.222 183.172, 553.653 174.287, 554.042 174.717 C 554.431 175.148, 560.694 193.387, 567.958 215.250 L 581.167 255 584.690 255 C 587.092 255, 588.065 254.602, 587.745 253.750 C 587.488 253.063, 579.930 230.113, 570.951 202.750 C 561.971 175.387, 554.371 153.001, 554.062 153.003 C 553.753 153.004, 548.878 166.617, 543.229 183.253 M 443.282 161.326 C 441.512 161.972, 439.277 163.289, 438.314 164.254 C 436.647 165.925, 436.660 166.104, 438.589 168.033 L 440.614 170.058 445.305 167.983 C 453.255 164.467, 459.940 167.072, 464.191 175.345 C 466.074 179.008, 466.381 181.630, 466.785 197.500 C 467.346 219.516, 466.264 227.864, 462.194 232.916 C 455.072 241.756, 442.652 240.050, 437.896 229.579 C 436.271 225.999, 436.041 222.735, 436.022 202.899 C 436.008 188.852, 436.420 179.093, 437.111 177.112 C 438.095 174.290, 437.963 173.703, 435.958 171.963 C 434.713 170.883, 433.325 170, 432.875 170 C 432.424 170, 431.339 172.467, 430.462 175.482 C 429.156 179.974, 428.926 185.257, 429.184 204.763 C 429.493 228.023, 429.558 228.675, 432.055 233.522 C 433.600 236.522, 436.301 239.671, 438.891 241.491 C 442.767 244.215, 443.912 244.500, 451 244.500 C 458.088 244.500, 459.233 244.215, 463.109 241.491 C 465.703 239.668, 468.398 236.525, 469.945 233.516 C 472.492 228.565, 472.500 228.471, 472.500 202.525 L 472.500 176.500 469.385 171 C 464.159 161.773, 453.195 157.710, 443.282 161.326 M 634.668 161.776 L 630.836 163.500 633.219 165.737 C 635.268 167.661, 636.078 167.838, 638.996 167.001 C 645.569 165.116, 654 169.687, 654 175.135 C 654 176.600, 654.751 177, 657.500 177 C 661.328 177, 661.730 176.063, 659.936 171.315 C 656.349 161.821, 644.507 157.350, 634.668 161.776 M 786.060 161.395 C 781.748 162.953, 781.211 164.437, 784.242 166.423 C 786.085 167.630, 787.367 167.755, 790.043 166.988 C 795.970 165.288, 802.679 168.902, 804.452 174.750 C 804.967 176.445, 805.890 177, 808.198 177 C 811.142 177, 811.240 176.863, 810.692 173.490 C 809.046 163.346, 797.013 157.438, 786.060 161.395 M 625.630 170.968 C 623.589 176.068, 623.565 180.024, 625.548 184.768 C 628.758 192.452, 633.782 195.775, 643.571 196.689 C 656.135 197.862, 664.969 206.020, 666.966 218.294 C 668.012 224.719, 666.372 233.044, 662.979 238.534 L 661.033 241.682 663.569 244.065 C 666.441 246.763, 666.219 246.934, 670.789 238.500 C 673.221 234.013, 673.499 232.475, 673.499 223.500 C 673.500 214.794, 673.162 212.788, 670.892 208 C 665.923 197.522, 655.074 190, 644.930 190 C 635.437 190, 630.258 184.650, 631.402 176.025 C 631.940 171.971, 631.712 171.078, 629.640 169.131 L 627.259 166.895 625.630 170.968 M 776.920 168.596 C 775.962 169.751, 775.500 172.836, 775.500 178.080 C 775.500 184.401, 775.891 186.381, 777.592 188.677 C 781.279 193.653, 785.347 195.658, 793.992 196.762 C 806.866 198.405, 814.643 205.146, 817.052 216.751 C 818.552 223.978, 817.844 228.879, 814.252 236.126 L 811.351 241.981 813.756 244.240 C 816.148 246.488, 816.169 246.489, 817.659 244.500 C 822.931 237.460, 825.351 227.559, 824.050 218.355 C 821.753 202.101, 811.555 191.792, 796.142 190.145 C 788.047 189.280, 784.392 187.183, 782.314 182.209 C 781.116 179.342, 781.024 177.828, 781.879 175.041 C 782.846 171.892, 782.713 171.258, 780.652 169.197 C 778.492 167.037, 778.247 166.998, 776.920 168.596 M 551.860 192.731 L 550.357 197.500 555.678 213.466 C 558.605 222.247, 561 229.785, 561 230.216 C 561 230.647, 554.250 231, 546 231 C 537.750 231, 531 231.268, 531 231.596 C 531 231.923, 531.931 233.498, 533.068 235.096 L 535.136 238 549.404 238 L 563.672 238 566.214 246.250 C 568.746 254.466, 568.772 254.501, 572.378 254.810 C 574.370 254.981, 576 254.756, 576 254.311 C 576 252.929, 554.791 189.546, 554.056 188.731 C 553.675 188.309, 552.686 190.109, 551.860 192.731 M 611.477 229.250 C 612.411 235.335, 617.521 245.416, 621.282 248.598 C 630.564 256.449, 643.671 258.569, 655.231 254.091 C 658.383 252.870, 661.243 251.416, 661.586 250.861 C 661.929 250.306, 661.214 248.793, 659.998 247.498 L 657.786 245.144 653.785 247.229 C 645.199 251.705, 634.239 250.464, 626.906 244.187 C 622.422 240.349, 618.026 232.227, 618.010 227.750 C 618.001 225.263, 617.657 225, 614.412 225 L 610.824 225 611.477 229.250 M 762 228.322 C 762 237.797, 770.470 249.756, 780.230 254.061 C 787.724 257.367, 798.375 257.241, 806.122 253.754 C 809.214 252.362, 812.031 250.759, 812.382 250.192 C 812.732 249.624, 811.866 248.253, 810.457 247.145 L 807.895 245.129 804.380 247.203 C 802.115 248.540, 798.491 249.434, 794.183 249.718 C 788.313 250.106, 786.832 249.816, 782.007 247.330 C 775.159 243.802, 770.571 237.911, 768.918 230.523 C 767.774 225.412, 767.470 225, 764.841 225 C 762.290 225, 762 225.339, 762 228.322 M 524.442 240.250 C 523.496 243.137, 521.891 247.637, 520.876 250.250 L 519.029 255 522.765 254.991 L 526.500 254.981 528.774 247.492 C 530.909 240.460, 530.948 239.850, 529.409 237.502 C 528.508 236.126, 527.408 235, 526.965 235 C 526.523 235, 525.387 237.363, 524.442 240.250" stroke="none" fill="#4f46e5" fill-rule="evenodd"/><path d="M 389.286 68.500 C 389.294 71.250, 389.488 72.256, 389.718 70.736 C 389.947 69.216, 389.941 66.966, 389.704 65.736 C 389.467 64.506, 389.279 65.750, 389.286 68.500 M 3.234 149.220 C 3.493 149.924, 11.684 174.462, 21.436 203.750 L 39.167 257 47.357 257 L 55.548 257 60.610 241.750 L 65.672 226.500 70.505 241.750 L 75.339 257 83.586 257 L 91.833 257 109.564 203.750 C 119.316 174.462, 127.507 149.924, 127.766 149.220 C 128.137 148.212, 125.398 148, 114.868 148.220 L 101.500 148.500 92.578 174.983 L 83.655 201.466 78.744 186.733 L 73.833 172 65.641 172 L 57.448 172 52.564 186.750 C 49.878 194.863, 47.504 201.050, 47.289 200.500 C 47.074 199.950, 42.983 188.025, 38.199 174 L 29.500 148.500 16.132 148.220 C 5.602 148, 2.863 148.212, 3.234 149.220 M 144.667 148.667 C 144.300 149.033, 144 173.558, 144 203.167 L 144 257 157 257 L 170 257 170 202.500 L 170 148 157.667 148 C 150.883 148, 145.033 148.300, 144.667 148.667 M 199 202.500 L 199 257 228 257 L 257 257 257 244.525 L 257 232.050 240.750 231.775 L 224.500 231.500 224.239 189.750 L 223.978 148 211.489 148 L 199 148 199 202.500 M 286 202.485 L 286 257.169 307.775 256.835 L 329.550 256.500 336.222 253.213 C 348.318 247.255, 354.079 237.974, 356.186 221.050 C 357.638 209.393, 356.606 181.164, 354.466 174 C 351.124 162.809, 343.993 154.801, 333.721 150.703 C 329.153 148.881, 325.842 148.569, 307.250 148.211 L 286 147.801 286 202.485 M 708.466 202.500 C 708.466 231.650, 708.593 243.431, 708.749 228.680 C 708.905 213.928, 708.905 190.078, 708.749 175.680 C 708.593 161.281, 708.465 173.350, 708.466 202.500 M 8.425 153.750 C 8.733 154.713, 16.341 177.550, 25.330 204.500 L 41.675 253.500 50.573 226.750 C 55.467 212.037, 59.703 200.008, 59.986 200.018 C 60.269 200.027, 64.455 212.177, 69.289 227.018 L 78.078 254 81.539 254 C 83.442 254, 85 253.497, 85 252.882 C 85 251.024, 60.649 177, 60.037 177 C 59.725 177, 55.710 188.363, 51.115 202.250 C 46.520 216.137, 42.467 227.824, 42.110 228.220 C 41.753 228.616, 35.696 211.628, 28.652 190.470 L 15.843 152 11.854 152 C 8.508 152, 7.956 152.282, 8.425 153.750 M 30.312 184.881 C 36.465 203.025, 41.811 217.562, 42.192 217.185 C 42.572 216.808, 43.417 214.475, 44.071 212 C 45.224 207.632, 44.994 206.692, 36.254 180 L 27.249 152.500 23.186 152.196 L 19.123 151.891 30.312 184.881 M 94.990 179.529 C 85.911 206.768, 85.827 207.110, 87.008 212.032 C 87.664 214.768, 88.499 217.191, 88.864 217.416 C 89.229 217.641, 94.568 203.015, 100.728 184.913 L 111.930 152 108.048 152 L 104.166 152 94.990 179.529 M 102.348 190.470 C 95.304 211.628, 89.260 228.616, 88.918 228.220 C 88.575 227.824, 84.609 216.520, 80.103 203.101 C 75.597 189.681, 71.465 177.869, 70.920 176.851 C 69.785 174.730, 64 174.227, 64 176.250 C 64 176.937, 69.702 194.600, 76.672 215.500 L 89.343 253.500 100.949 218.500 C 107.332 199.250, 114.856 176.412, 117.668 167.750 L 122.781 152 118.969 152 L 115.157 152 102.348 190.470 M 148 203 L 148 254 151.500 254 L 155 254 155 203 L 155 152 151.500 152 L 148 152 148 203 M 159 203 L 159 254 162.500 254 L 166 254 166 203 L 166 152 162.500 152 L 159 152 159 203 M 202.240 197.250 L 202.500 242.500 227.750 242.767 L 253 243.034 253 239.017 L 253 235 231.500 235 L 210 235 210 193.500 L 210 152 205.990 152 L 201.980 152 202.240 197.250 M 213.239 191.750 L 213.500 231.500 217 231.500 L 220.500 231.500 220.761 191.750 L 221.023 152 217 152 L 212.977 152 213.239 191.750 M 289.240 197.250 L 289.500 242.500 306.500 242.500 C 325.920 242.500, 330.733 241.346, 335.910 235.449 C 340.952 229.707, 342 224.034, 342 202.477 C 342 181.454, 341.144 176.500, 336.450 170.346 C 332.107 164.652, 327.311 163.048, 314.554 163.022 L 303.608 163 306.902 166.399 C 310.009 169.605, 310.639 169.817, 318.021 170.153 C 324.708 170.456, 326.236 170.871, 328.519 173.004 C 333.983 178.109, 334.434 180.048, 334.822 200.057 C 335.231 221.205, 334.512 225.378, 329.519 230.830 L 326.159 234.500 311.579 234.824 L 297 235.148 297 196.984 L 297 158.821 312.250 159.177 C 329.528 159.581, 333.169 160.742, 338.875 167.665 C 344.154 174.069, 345.187 178.655, 345.741 198.142 C 346.281 217.128, 345.262 226.606, 341.991 233.017 L 340.093 236.739 342.361 238.869 C 343.608 240.041, 344.961 241, 345.367 241 C 345.773 241, 347.540 237.963, 349.295 234.250 L 352.485 227.500 352.845 207.250 C 353.071 194.571, 352.766 184.479, 352.031 180.255 C 350.476 171.325, 345.786 162.692, 340.154 158.391 C 333.031 152.953, 328.135 152, 307.308 152 L 288.980 152 289.240 197.250 M 448.250 155.716 C 449.762 155.945, 452.238 155.945, 453.750 155.716 C 455.262 155.487, 454.025 155.300, 451 155.300 C 447.975 155.300, 446.738 155.487, 448.250 155.716 M 300.236 198.750 L 300.500 231.500 304 231.500 L 307.500 231.500 307.765 202.663 L 308.031 173.827 304.931 169.913 C 303.227 167.761, 301.414 166, 300.902 166 C 300.343 166, 300.078 179.047, 300.236 198.750 M 311.506 174.123 C 311.210 174.895, 311.087 188.121, 311.234 203.513 L 311.500 231.500 317.844 231.319 C 329.562 230.986, 331 227.837, 331 202.500 C 331 177.526, 329.699 174.565, 318.197 173.363 C 313.397 172.861, 311.926 173.028, 311.506 174.123 M 770.300 178 C 770.300 181.025, 770.487 182.262, 770.716 180.750 C 770.945 179.238, 770.945 176.762, 770.716 175.250 C 770.487 173.738, 770.300 174.975, 770.300 178 M 417.429 202.500 C 417.429 215.150, 417.573 220.187, 417.747 213.694 C 417.922 207.200, 417.921 196.850, 417.746 190.694 C 417.571 184.537, 417.428 189.850, 417.429 202.500 M 484.430 203 C 484.430 215.925, 484.573 221.213, 484.747 214.750 C 484.921 208.287, 484.921 197.712, 484.747 191.250 C 484.573 184.787, 484.430 190.075, 484.430 203 M 424.425 202 C 424.425 213.825, 424.569 218.662, 424.746 212.750 C 424.923 206.838, 424.923 197.162, 424.746 191.250 C 424.569 185.338, 424.425 190.175, 424.425 202 M 477.425 203 C 477.425 214.825, 477.569 219.662, 477.746 213.750 C 477.923 207.838, 477.923 198.162, 477.746 192.250 C 477.569 186.338, 477.425 191.175, 477.425 203 M 473.420 203.500 C 473.419 214.500, 473.565 219.136, 473.745 213.803 C 473.924 208.470, 473.925 199.470, 473.746 193.803 C 473.568 188.136, 473.421 192.500, 473.420 203.500 M 466.411 203 C 466.411 212.625, 466.561 216.563, 466.745 211.750 C 466.928 206.937, 466.928 199.062, 466.745 194.250 C 466.561 189.438, 466.411 193.375, 466.411 203 M 52.724 231.300 C 49.026 242.439, 46 252.103, 46 252.776 C 46 253.503, 47.391 254, 49.428 254 L 52.856 254 58.144 238.032 C 63.282 222.518, 63.396 221.928, 62.158 217.282 C 61.457 214.652, 60.560 212.173, 60.165 211.774 C 59.771 211.374, 56.422 220.161, 52.724 231.300 M 532 215.224 C 532 215.651, 533.800 216, 536 216 C 538.200 216, 540 215.822, 540 215.605 C 540 215.388, 538.200 215.038, 536 214.829 C 533.800 214.619, 532 214.797, 532 215.224 M 533.292 219.742 C 537.027 219.935, 542.877 219.934, 546.292 219.739 C 549.706 219.545, 546.650 219.387, 539.500 219.389 C 532.350 219.390, 529.556 219.550, 533.292 219.742 M 817.286 223.500 C 817.294 226.250, 817.488 227.256, 817.718 225.736 C 817.947 224.216, 817.941 221.966, 817.704 220.736 C 817.467 219.506, 817.279 220.750, 817.286 223.500 M 625.938 224.559 C 627.554 224.866, 629.083 225.775, 629.336 226.578 C 629.629 227.508, 629.740 227.396, 629.640 226.270 C 629.531 225.032, 628.509 224.425, 626.242 224.250 C 623.149 224.011, 623.135 224.026, 625.938 224.559 M 761.409 225.378 C 761.091 226.206, 761.042 227.697, 761.299 228.692 C 761.606 229.875, 761.808 229.549, 761.884 227.750 C 761.983 225.402, 762.428 225, 764.930 225 C 767.052 225, 767.986 225.556, 768.314 227.015 C 768.690 228.692, 768.744 228.650, 768.633 226.765 C 768.528 224.974, 767.819 224.434, 765.243 224.186 C 763.047 223.974, 761.798 224.363, 761.409 225.378 M 336.542 239.932 C 336.169 240.535, 333.982 242.030, 331.682 243.255 C 327.905 245.266, 325.661 245.531, 308.500 245.991 L 289.500 246.500 289.500 250 L 289.500 253.500 308.500 253.440 C 327.111 253.380, 327.627 253.322, 333.697 250.577 C 337.106 249.035, 340.590 247.006, 341.439 246.067 C 342.849 244.510, 342.731 244.117, 340.102 241.598 C 338.254 239.828, 336.976 239.230, 336.542 239.932 M 640.264 245.718 C 641.784 245.947, 644.034 245.941, 645.264 245.704 C 646.494 245.467, 645.250 245.279, 642.500 245.286 C 639.750 245.294, 638.744 245.488, 640.264 245.718 M 202.390 247.427 C 202.088 248.212, 201.990 249.900, 202.171 251.177 L 202.500 253.500 227.750 253.767 L 253 254.034 253 250.017 L 253 246 227.969 246 C 207.208 246, 202.844 246.244, 202.390 247.427" stroke="none" fill="#5150c3" fill-rule="evenodd"/><path d="M 350.469 29.250 L 344.500 35.500 350.750 29.531 C 356.556 23.987, 357.458 23, 356.719 23 C 356.564 23, 353.751 25.813, 350.469 29.250 M 548.460 86.935 C 548.778 87.450, 547.567 88.053, 545.769 88.275 C 542.996 88.619, 543.163 88.704, 546.872 88.840 C 550.655 88.978, 551.077 88.797, 550 87.500 C 548.631 85.850, 547.543 85.451, 548.460 86.935 M 198.467 202.500 C 198.467 232.750, 198.594 245.269, 198.749 230.321 C 198.905 215.372, 198.905 190.622, 198.749 175.321 C 198.594 160.019, 198.467 172.250, 198.467 202.500 M 224.483 189.500 L 224.500 231.500 240.500 231.537 L 256.500 231.574 240.761 231.262 L 225.022 230.951 224.744 189.225 L 224.466 147.500 224.483 189.500 M 285.467 202.500 C 285.467 232.750, 285.594 245.269, 285.749 230.321 C 285.905 215.372, 285.905 190.622, 285.749 175.321 C 285.594 160.019, 285.467 172.250, 285.467 202.500 M 719.241 202.750 L 719 256 723.500 256 L 728 256 727.759 202.750 L 727.518 149.500 727.250 202.250 L 726.982 255 723.500 255 L 720.018 255 719.750 202.250 L 719.482 149.500 719.241 202.750 M 202.484 197 L 202.500 242.500 227.750 242.526 L 253.001 242.553 228.011 242.259 L 203.020 241.966 202.745 196.733 L 202.469 151.500 202.484 197 M 209.239 193.750 L 209 236 231.250 235.771 L 253.500 235.541 231.761 235.251 L 210.022 234.961 209.750 193.231 L 209.477 151.500 209.239 193.750 M 213.483 192 L 213.500 231.500 217 231.500 L 220.500 231.500 220.518 191.500 L 220.535 151.500 220.256 191.250 L 219.977 231 217 231 L 214.023 231 213.744 191.750 L 213.466 152.500 213.483 192 M 289.484 197 L 289.500 242.500 304.751 242.540 L 320.002 242.581 305.011 242.264 L 290.020 241.948 289.745 196.724 L 289.469 151.500 289.484 197 M 296.238 197.250 L 296 236 309.250 235.783 L 322.500 235.565 309.762 235.253 L 297.024 234.940 296.750 196.720 L 296.476 158.500 296.238 197.250 M 791.264 159.718 C 792.784 159.947, 795.034 159.941, 796.264 159.704 C 797.494 159.467, 796.250 159.279, 793.500 159.286 C 790.750 159.294, 789.744 159.488, 791.264 159.718 M 300.236 198.750 L 300.500 231.500 304 231.500 L 307.500 231.500 307.523 202.250 L 307.546 172.999 307.258 202 L 306.970 231 303.985 231 L 301 231 301 198.845 L 301 166.690 303.250 168.595 L 305.500 170.500 303.595 168.250 C 302.547 167.012, 301.304 166, 300.831 166 C 300.359 166, 300.091 180.738, 300.236 198.750 M 626.200 167.200 C 625.540 167.860, 625 168.846, 625 169.391 C 625 169.936, 625.642 169.509, 626.426 168.441 C 627.812 166.554, 627.943 166.583, 631.176 169.500 L 634.500 172.500 631.563 169.250 C 628.291 165.630, 627.914 165.486, 626.200 167.200 M 776.507 166.989 C 776.169 167.535, 776.530 167.734, 777.313 167.433 C 778.133 167.119, 779.839 168.208, 781.365 170.022 C 782.814 171.744, 784 172.753, 784 172.264 C 784 171.268, 778.747 166, 777.754 166 C 777.404 166, 776.843 166.445, 776.507 166.989 M 431.548 169.750 C 431.016 171.148, 431.133 171.250, 432.134 170.257 C 433.133 169.265, 433.852 169.452, 435.693 171.181 C 436.962 172.373, 438.036 174.058, 438.079 174.924 C 438.136 176.071, 438.302 176.138, 438.689 175.170 C 439.191 173.913, 434.433 168, 432.920 168 C 432.532 168, 431.914 168.787, 431.548 169.750 M 61.280 171.736 C 63.909 171.943, 67.959 171.940, 70.280 171.731 C 72.601 171.521, 70.450 171.352, 65.500 171.355 C 60.550 171.358, 58.651 171.530, 61.280 171.736 M 612.320 178 C 612.320 181.575, 612.502 183.037, 612.723 181.250 C 612.945 179.463, 612.945 176.537, 612.723 174.750 C 612.502 172.963, 612.320 174.425, 612.320 178 M 311.452 174.263 C 311.186 174.958, 311.087 188.121, 311.234 203.513 L 311.500 231.500 315.757 231.598 L 320.015 231.696 316.007 231.291 L 312 230.885 312 202.500 L 312 174.115 316.250 173.732 L 320.500 173.349 316.219 173.175 C 313.552 173.066, 311.754 173.476, 311.452 174.263 M 620.286 177.500 C 620.294 180.250, 620.488 181.256, 620.718 179.736 C 620.947 178.216, 620.941 175.966, 620.704 174.736 C 620.467 173.506, 620.279 174.750, 620.286 177.500 M 428.430 203 C 428.430 215.925, 428.573 221.213, 428.747 214.750 C 428.921 208.287, 428.921 197.712, 428.747 191.250 C 428.573 184.787, 428.430 190.075, 428.430 203 M 436.426 202.500 C 436.427 214.600, 436.571 219.413, 436.747 213.195 C 436.923 206.977, 436.922 197.077, 436.746 191.195 C 436.569 185.313, 436.425 190.400, 436.426 202.500 M 352.422 203 C 352.422 214.275, 352.568 218.887, 352.746 213.250 C 352.924 207.613, 352.924 198.387, 352.746 192.750 C 352.568 187.113, 352.422 191.725, 352.422 203 M 655.286 223.500 C 655.294 226.250, 655.488 227.256, 655.718 225.736 C 655.947 224.216, 655.941 221.966, 655.704 220.736 C 655.467 219.506, 655.279 220.750, 655.286 223.500 M 663.286 223.500 C 663.294 226.250, 663.488 227.256, 663.718 225.736 C 663.947 224.216, 663.941 221.966, 663.704 220.736 C 663.467 219.506, 663.279 220.750, 663.286 223.500 M 529 230.941 C 529 231.459, 529.520 232.203, 530.155 232.595 C 530.860 233.032, 531.038 232.870, 530.611 232.180 C 530.107 231.364, 534.295 230.967, 545.707 230.748 L 561.500 230.445 545.250 230.223 C 535.605 230.091, 529 230.382, 529 230.941 M 541.296 238.744 C 545.583 238.932, 552.333 238.931, 556.296 238.742 C 560.258 238.552, 556.750 238.399, 548.500 238.400 C 540.250 238.401, 537.008 238.556, 541.296 238.744 M 335.921 240.750 C 334.797 242.236, 334.807 242.312, 335.991 241.257 C 337.121 240.250, 337.825 240.426, 339.692 242.180 C 341.905 244.260, 341.927 244.429, 340.249 246.423 L 338.500 248.500 340.771 246.576 L 343.041 244.653 340.334 241.826 C 338.844 240.272, 337.540 239, 337.435 239 C 337.331 239, 336.649 239.787, 335.921 240.750 M 806.405 245.155 C 805.947 245.895, 806.132 246.036, 806.920 245.550 C 808.623 244.497, 813.223 248.973, 812.470 250.952 C 812 252.188, 812.134 252.249, 813.134 251.257 C 814.136 250.262, 813.811 249.412, 811.506 247.007 C 808.361 243.724, 807.485 243.406, 806.405 245.155 M 202.390 247.427 C 202.088 248.212, 201.990 249.900, 202.171 251.177 L 202.500 253.500 227.750 253.526 L 253.001 253.553 228 253.259 L 203 252.966 203 250 L 203 247.034 228.250 246.749 L 253.500 246.464 228.219 246.232 C 207.089 246.038, 202.847 246.234, 202.390 247.427 M 289.390 247.427 C 289.088 248.212, 288.990 249.900, 289.171 251.177 C 289.499 253.492, 289.556 253.500, 305 253.538 L 320.500 253.576 305.250 253.263 L 290 252.949 290 249.999 L 290 247.050 306.250 246.748 L 322.500 246.447 306.219 246.223 C 292.889 246.041, 289.838 246.259, 289.390 247.427 M 588 254.105 C 588 254.791, 586.484 255.065, 584 254.829 C 581.800 254.619, 580 254.797, 580 255.224 C 580 255.651, 582.025 256, 584.500 256 C 587.833 256, 589 255.611, 589 254.500 C 589 253.675, 588.775 253, 588.500 253 C 588.225 253, 588 253.497, 588 254.105 M 511 255 L 506.500 255.700 510.691 255.850 C 512.996 255.932, 515.160 255.550, 515.500 255 C 515.840 254.450, 515.979 254.068, 515.809 254.150 C 515.639 254.233, 513.475 254.615, 511 255 M 518 255.201 C 518 255.640, 520.138 255.964, 522.750 255.921 C 527.978 255.834, 527.555 255.349, 521.750 254.773 C 519.688 254.569, 518 254.761, 518 255.201 M 570.264 255.718 C 571.784 255.947, 574.034 255.941, 575.264 255.704 C 576.494 255.467, 575.250 255.279, 572.500 255.286 C 569.750 255.294, 568.744 255.488, 570.264 255.718" stroke="none" fill="#fafafb" fill-rule="evenodd"/></svg>